<svg width="24" height="24" viewBox="0 0 24 24" fill="none" xmlns="http://www.w3.org/2000/svg">
<path d="M15.3909 18.0143C15.8197 19.6147 14.8699 21.2597 13.2695 21.6885C11.6691 22.1174 10.0241 21.1676 9.59531 19.5672M11.8914 5.74036C12.1956 5.19306 12.2958 4.53156 12.121 3.87896C11.7636 2.5453 10.3928 1.75384 9.05909 2.1112C7.72542 2.46855 6.93397 3.83939 7.29132 5.17306C7.46619 5.82566 7.88372 6.34843 8.42082 6.6703M17.2358 9.4448C16.8788 8.11267 15.9259 6.9987 14.5866 6.34797C13.2474 5.69724 11.6314 5.56304 10.0944 5.9749C8.55729 6.38676 7.22496 7.31094 6.39048 8.54412C5.556 9.77731 5.28773 11.2185 5.64467 12.5506C6.23524 14.7547 6.12057 16.5131 5.74761 17.8492C5.32255 19.3721 5.11001 20.1335 5.16743 20.2864C5.23312 20.4613 5.28064 20.5093 5.45488 20.5768C5.60717 20.6358 6.24694 20.4644 7.52648 20.1216L19.3915 16.9423C20.6711 16.5995 21.3109 16.428 21.4132 16.3008C21.5304 16.1552 21.5475 16.0899 21.517 15.9055C21.4902 15.7444 20.9255 15.1913 19.7959 14.085C18.8049 13.1143 17.8264 11.6489 17.2358 9.4448Z" stroke="black" stroke-width="1.5" stroke-linecap="round" stroke-linejoin="round"/>
</svg>
