<svg width="24" height="24" viewBox="0 0 24 24" fill="none" xmlns="http://www.w3.org/2000/svg">
<path d="M5.25 10.4L6.06165 5.78261C6.24247 4.75395 7.18115 4 8.28103 4H15.7189C16.8188 4 17.7575 4.75395 17.9383 5.78261L18.75 10.4M5.25 10.4H18.75M5.25 10.4C4.00736 10.4 3 11.3551 3 12.5333V14.6667C3 15.8449 4.00736 16.8 5.25 16.8M18.75 10.4C19.9927 10.4 21 11.3551 21 12.5333V14.6667C21 15.8449 19.9927 16.8 18.75 16.8M5.25 16.8H18.75M5.25 16.8V18.4001C5.25 19.2836 6.00549 20 6.93744 20C7.86939 20 8.62489 19.2836 8.62489 18.4001V16.8H5.25ZM18.75 16.8L18.7499 18.4001C18.7499 19.2836 17.9943 20 17.0624 20C16.1304 20 15.375 19.2836 15.375 18.4001V16.8H18.75Z" stroke="black" stroke-width="1.5"/>
</svg>
