<svg width="24" height="24" viewBox="0 0 24 24" fill="none" xmlns="http://www.w3.org/2000/svg">
<path d="M5.25 10.4L6.06165 5.78261C6.24247 4.75395 7.18115 4 8.28103 4H15.7189C16.8188 4 17.7575 4.75395 17.9383 5.78261L18.75 10.4M5.25 10.4H18.75M5.25 10.4C4.00736 10.4 3 11.3551 3 12.5333V14.6667C3 15.8449 4.00736 16.8 5.25 16.8M18.75 10.4C19.9927 10.4 21 11.3551 21 12.5333M5.25 16.8V18.4001C5.25 19.2836 6.00549 20 6.93744 20C7.86939 20 8.62489 19.2836 8.62489 18.4001V16.8M5.25 16.8H8.62489M8.62489 16.8H13.5" stroke="black" stroke-width="1.5" stroke-linecap="round"/>
<path d="M16.8787 20.1218L21.1213 15.8791M16.8787 15.8791L21.1213 20.1218" stroke="black" stroke-width="1.5" stroke-linecap="round" stroke-linejoin="round"/>
</svg>
